<?xml version="1.0" encoding="UTF-8" standalone="no"?>
<!DOCTYPE svg PUBLIC "-//W3C//DTD SVG 1.1//EN" "http://www.w3.org/Graphics/SVG/1.1/DTD/svg11.dtd">
<svg width="100%" height="100%" viewBox="0 0 131 95" version="1.1" xmlns="http://www.w3.org/2000/svg" xmlns:xlink="http://www.w3.org/1999/xlink" xml:space="preserve" xmlns:serif="http://www.serif.com/" style="fill-rule:evenodd;clip-rule:evenodd;stroke-linejoin:round;stroke-miterlimit:2;">
    <g id="M" transform="matrix(0.159553,0,0,0.159553,-15.9553,-67.0124)">
        <path d="M130,435C124.492,435 120.018,430.537 120,425.032C120,425.022 120,425.011 120,425C120,422.24 122.24,420 125,420L315,420L315.032,420C317.766,420.017 319.983,422.234 320,424.968L320,425C320,436.686 322.678,447.751 327.455,457.615L525.213,838.635C525.834,840.69 527.743,842.188 530,842.188C532.049,842.188 533.811,840.953 534.583,839.188L686.616,515L712.829,457.023C717.428,447.308 720,436.452 720,425C720,422.24 722.24,420 725,420L910,420C912.76,420 915,422.24 915,425C915,425.011 915,425.022 915,425.032C914.982,430.516 910.478,434.965 905,435L905,435C894.949,434.999 875.004,439.06 860,440C780.231,444.996 768.333,437.13 750.043,437L750.057,437C750.059,437 750.052,437 750.049,437L750,437L750.043,437C750.008,437.001 749.931,437.001 749.946,437.001L750,437C749.982,437 749.965,437 749.947,437.001L749.946,437.001C748.591,437.029 747.5,438.138 747.5,439.5C747.5,440.561 748.162,441.468 749.095,441.831C793.477,464.969 830,471.197 830,542C830,542 829.627,845.837 830,910C830.066,921.35 829.449,933.643 832.237,943.976C834.976,954.129 838.799,964.886 846.727,971.998C853.626,978.189 863.066,981.037 872.056,983.043C881.768,985.21 902.422,985 905,985C910.508,985 914.982,989.463 915,994.968C915,994.978 915,994.989 915,995C915,997.76 912.76,1000 910,1000L640,1000C637.24,1000 635,997.76 635,995C635,994.989 635,994.978 635,994.968C635.018,989.463 639.492,985 645,985C645,985 668.919,985.398 677.944,983.043C698.605,981.343 715.584,964.527 717.763,943.977C720.416,934.558 720,912.518 720,910L710,580C710,577.24 707.76,575 705,575C702.251,575 700.017,577.223 700,579.968L699.5,581.062L498.931,1007C497.283,1010.26 493.901,1012.5 490,1012.5C486.099,1012.5 482.717,1010.26 481.069,1007C481.069,1007 259.851,578.613 259.583,578C258.811,576.235 257.049,575 255,575C252.251,575 250.017,577.223 250,579.968L250,580L235,910C235,919.794 237,937.884 237,939.5C237,963.197 256.803,983.185 280.5,983.185C282.116,983.185 300.206,985 310,985C315.508,985 319.982,989.463 320,994.968C320,994.978 320,994.989 320,995C320,997.76 317.76,1000 315,1000L105,1000C102.24,1000 100,997.76 100,995C100,994.989 100,994.978 100,994.968C100.018,989.463 104.492,985 110,985C119.794,985 137.884,983.185 139.5,983.185C163.197,983.185 183,963.197 183,939.5C183,937.884 185,919.794 185,910L204.621,517.579C204.872,515.087 205,512.558 205,510C205,468.606 171.394,435 130,435Z" style="fill:url(#_Linear1);"/>
    </g>
    <defs>
        <linearGradient id="_Linear1" x1="0" y1="0" x2="1" y2="0" gradientUnits="userSpaceOnUse" gradientTransform="matrix(5.88956e-14,961.838,-961.838,5.88956e-14,1334.7,420)"><stop offset="0" style="stop-color:rgb(250,248,242);stop-opacity:1"/><stop offset="0.18" style="stop-color:rgb(235,231,221);stop-opacity:1"/><stop offset="0.39" style="stop-color:rgb(221,215,201);stop-opacity:1"/><stop offset="1" style="stop-color:rgb(215,208,193);stop-opacity:1"/></linearGradient>
    </defs>
</svg>
