<svg height="479pt" viewBox="-87 1 479 479.99967" width="479pt" xmlns="http://www.w3.org/2000/svg"><path d="m284.089844 227.734375c27.210937-46.824219 27.210937-104.644531 0-151.472656 0-.078125 0-.175781-.078125-.253907-.078125-.082031-.167969-.160156-.230469-.257812-27.097656-46.878906-77.136719-75.75-131.28125-75.75-54.148438 0-104.183594 28.871094-131.28125 75.75-.0625.097656-.167969.152344-.222656.257812-.054688.105469-.046875.175782-.089844.253907-27.210938 46.828125-27.210938 104.648437 0 151.472656 0 .082031 0 .175781.089844.257813.085937.078124.160156.160156.222656.253906 9.386719 16.144531 21.648438 30.433594 36.183594 42.152344l34.96875 81.601562h-3.871094c-7.976562-.027344-15.441406 3.921875-19.902344 10.53125-4.464844 6.609375-5.339844 15.007812-2.335937 22.394531-10.445313 2.8125-17.714844 12.261719-17.761719 23.074219v8c0 13.253906 10.746094 24 24 24h8c2.730469-.027344 5.4375-.523438 8-1.472656v17.777344c.015625 13.078124 10.617188 23.675781 23.695312 23.695312h80.609376c13.078124-.019531 23.675781-10.617188 23.695312-23.695312v-17.777344c2.5625.949218 5.269531 1.445312 8 1.472656h8c13.253906 0 24-10.746094 24-24v-8c-.046875-10.8125-7.320312-20.261719-17.761719-23.074219 3.003907-7.386719 2.128907-15.785156-2.335937-22.394531s-11.925782-10.558594-19.902344-10.53125h-3.871094l34.976563-81.601562c14.480469-11.679688 26.714843-25.90625 36.09375-41.976563.105469-.148437.242187-.269531.335937-.429687.097656-.160157.015625-.175782.054688-.257813zm-10.34375-14.453125c-5.457032-2.59375-11.066406-4.851562-16.796875-6.761719 10.097656-35.644531 10.097656-73.394531 0-109.039062 5.730469-1.910157 11.339843-4.167969 16.796875-6.761719 19.671875 38.488281 19.671875 84.074219 0 122.5625zm-217.246094-61.28125c-.019531-16.917969 2.277344-33.761719 6.824219-50.054688 11.671875 2.921876 23.507812 5.148438 35.449219 6.664063-3.03125 28.847656-3.03125 57.933594 0 86.78125-11.941407 1.515625-23.777344 3.738281-35.449219 6.664063-4.546875-16.296876-6.84375-33.136719-6.824219-50.054688zm180.160156-65.320312c-10.691406 2.617187-21.523437 4.628906-32.441406 6.023437-2.820312-24.179687-9.894531-47.667969-20.894531-69.382813 25.074219 13.707032 44.105469 36.3125 53.335937 63.359376zm-48.183594 7.761718c-11.59375 1.015625-23.671874 1.597656-36 1.597656-12.328124 0-24.375-.542968-36-1.597656 7.4375-49.640625 23.558594-78.441406 36.023438-78.441406s28.582031 28.800781 36 78.441406zm4.023438 57.558594c.015625 13.910156-.671875 27.808594-2.0625 41.648438-12.1875-1.082032-24.90625-1.648438-37.9375-1.648438s-25.753906.566406-37.9375 1.648438c-2.75-27.699219-2.75-55.601563 0-83.296876 12.183594 1.082032 24.90625 1.648438 37.9375 1.648438s25.75-.566406 37.9375-1.648438c1.390625 13.839844 2.078125 27.738282 2.0625 41.648438zm-40 136c-12.464844 0-28.585938-28.800781-36-78.398438 11.589844-1.019531 23.664062-1.601562 36-1.601562s24.382812.542969 36 1.601562c-7.417969 49.597657-23.535156 78.398438-36 78.398438zm-30.824219-264.679688c-10.996093 21.714844-18.070312 45.207032-20.886719 69.382813-10.921874-1.394531-21.753906-3.40625-32.449218-6.023437 9.230468-27.046876 28.261718-49.652344 53.335937-63.359376zm-20.886719 188c2.816407 24.175782 9.890626 47.667969 20.886719 69.382813-25.074219-13.707031-44.105469-36.3125-53.335937-63.359375 10.695312-2.625 21.527344-4.644531 32.449218-6.046875zm51.710938 92.679688c6.960938-.058594 13.910156-.589844 20.800781-1.601562l-4.160156 49.601562h-33.28125l-4.160156-49.601562c6.890625 1.011718 13.839843 1.546874 20.800781 1.601562zm30.824219-23.320312c11-21.714844 18.074219-45.207032 20.894531-69.382813 10.917969 1.394531 21.75 3.40625 32.441406 6.023437-9.230468 27.046876-28.261718 49.652344-53.335937 63.359376zm22.910156-85.289063c1.507813-14.414063 2.265625-28.898437 2.265625-43.390625s-.757812-28.976562-2.265625-43.390625c11.9375-1.515625 23.769531-3.742187 35.441406-6.664063 9.097657 32.75 9.097657 67.359376 0 100.109376-11.671875-2.925782-23.503906-5.148438-35.441406-6.664063zm59.488281-118.589844c-4.5 2.066407-9.113281 3.886719-13.816406 5.445313-6.035156-16.105469-14.703125-31.09375-25.65625-44.359375 15.671875 10.148437 29.101562 23.390625 39.472656 38.914062zm-186.976562-38.90625c-10.945313 13.269531-19.613282 28.257813-25.65625 44.359375-4.699219-1.558594-9.3125-3.378906-13.8125-5.445312 10.371094-15.523438 23.800781-28.765625 39.46875-38.914063zm-47.496094 52.800781c5.460938 2.589844 11.070312 4.847657 16.800781 6.761719-10.097656 35.644531-10.097656 73.394531 0 109.039063-5.730469 1.910156-11.339843 4.167968-16.800781 6.757812-19.667969-38.484375-19.667969-84.074218 0-122.558594zm8 136.472657c4.503906-2.066407 9.117188-3.886719 13.816406-5.449219 6.042969 16.105469 14.710938 31.09375 25.65625 44.359375-15.65625-10.140625-29.078125-23.371094-39.445312-38.878906zm42.402344 59.199219c10.695312 5.625 22.03125 9.945312 33.757812 12.863281l4.402344 52.800781h-10.039062zm51.535156 113.632812-28.6875 28.6875v-28.6875zm-52.6875 24h-8c-4.417969 0-8-3.582031-8-8v-8c0-4.417969 3.582031-8 8-8h16v16c0 4.417969-3.582031 8-8 8zm24 32.304688v-4.992188l51.3125-51.3125h44.6875v4.6875l-59.3125 59.3125h-28.992188c-4.246093-.007812-7.6875-3.449219-7.695312-7.695312zm88.304688 7.695312h-28.992188l36.6875-36.6875v28.992188c-.007812 4.246093-3.449219 7.6875-7.695312 7.695312zm47.695312-48c0 4.417969-3.582031 8-8 8h-8c-4.417969 0-8-3.582031-8-8v-16h16c4.417969 0 8 3.582031 8 8zm-16-40c0 4.417969-3.582031 8-8 8h-128c-4.417969 0-8-3.582031-8-8s3.582031-8 8-8h128c4.417969 0 8 3.582031 8 8zm-29.273438-24h-10.039062l4.398438-52.800781c11.730468-2.917969 23.066406-7.238281 33.761718-12.863281zm31.023438-85.894531c10.953125-13.265625 19.621094-28.253907 25.65625-44.363281 4.703125 1.5625 9.316406 3.382812 13.816406 5.449218-10.371094 15.523438-23.800781 28.765625-39.472656 38.914063zm0 0"/></svg>