<?xml version="1.0" encoding="UTF-8" standalone="no"?>
<!DOCTYPE svg PUBLIC "-//W3C//DTD SVG 1.1//EN" "http://www.w3.org/Graphics/SVG/1.1/DTD/svg11.dtd">
<svg width="100%" height="100%" viewBox="0 0 150 39" version="1.1" xmlns="http://www.w3.org/2000/svg" xmlns:xlink="http://www.w3.org/1999/xlink" xml:space="preserve" xmlns:serif="http://www.serif.com/" style="fill-rule:evenodd;clip-rule:evenodd;stroke-linejoin:round;stroke-miterlimit:2;">
    <g id="Maia" transform="matrix(0.0629816,0,0,0.0658228,-6.29816,-27.6456)">
        <g id="A2" transform="matrix(1,0,0,1,949.647,29.8237)">
            <path d="M1168.82,405.177C1167.46,405.206 1166.38,406.315 1166.38,407.676C1166.38,408.737 1167.04,409.644 1167.97,410.007C1217.35,417.145 1276.82,435.867 1306.02,514.176C1306.02,514.176 1420.44,818.896 1448.83,896.529C1450.94,902.29 1452.88,907.8 1454.63,912.972C1454.83,913.557 1455.34,914.471 1455.47,914.629C1467.99,938.613 1493.1,955 1522,955L1522.13,955.001C1527.58,955.07 1531.98,959.506 1532,964.968C1532,964.978 1532,964.989 1532,965C1532,967.76 1529.76,970 1527,970L1262.88,970.176C1260.12,970.176 1257.88,967.936 1257.88,965.176C1257.88,965.166 1257.88,965.155 1257.88,965.144C1257.89,959.639 1262.37,955.176 1267.88,955.176C1267.88,955.176 1274.96,955.001 1279,955C1285.2,954.998 1288.82,955 1297,955C1297,955 1297,955 1297,955C1313.56,955 1327,941.557 1327,925C1327,923.155 1326.83,921.35 1326.51,919.598C1324.95,908.281 1319.05,892.653 1314.88,880.176L1282.78,785.544C1282.16,783.493 1280.25,782 1278,782C1277.94,782 1079.08,782.176 1079.08,782.176L1048,782L1047.98,782C1046.61,782.009 1045.5,783.126 1045.5,784.5C1045.5,785.794 1046.49,786.86 1047.75,786.987L1048.03,787C1051.5,786.977 1054.76,786.901 1055,787L1055,787C1063.13,787.032 1069.74,793.539 1069.94,801.625C1069.98,801.746 1070,801.871 1070,802C1069.99,806.791 1069.01,809.385 1068.02,812.176C1067.79,812.806 1043.66,877.822 1034.44,903C1034.38,903.163 1031.02,913.488 1031.02,919C1031.02,936.903 1044.21,950.28 1061,954C1062.89,954.619 1066.32,954.731 1080,954.919C1083.82,954.972 1088.45,955 1094.08,955C1099.58,955 1104.06,959.639 1104.08,965.144C1104.08,965.155 1104.08,965.166 1104.08,965.176C1104.08,967.936 1101.84,970.176 1099.08,970.176L910.076,970.176C907.316,970.176 905.076,967.936 905.076,965.176C905.076,965.166 905.076,965.155 905.076,965.144C905.094,959.639 909.568,955.176 915.076,955.176C916.237,955.176 917.379,955.058 918.5,954.867C946.027,953.235 969.579,936.727 981.219,913.281C981.709,912.873 1003.45,862.178 1005,858.474C1056.87,734.674 1143.83,468.238 1151.27,449.447C1152.29,446.869 1154.19,441.642 1155.47,436.426C1156.29,433.036 1157.13,429.651 1157,427C1157,425.57 1156.4,424.28 1155.43,423.368L1155.43,423.368C1155.3,423.243 1148.58,417.625 1145.8,415.947C1134.49,409.111 1121.24,405.176 1107.08,405.176C1101.57,405.176 1097.09,400.713 1097.08,395.209C1097.08,395.198 1097.08,395.187 1097.08,395.176C1097.08,392.417 1099.32,390.176 1102.08,390.176L1292.08,390.176L1292.11,390.176C1294.84,390.194 1328.88,390.176 1328.88,390.176C1331.63,390.176 1333.88,392.417 1333.88,395.176C1333.88,395.187 1333.88,395.198 1333.88,395.209C1333.86,400.643 1329.43,405.03 1324.02,405.141C1324.01,405.164 1323.96,405.176 1323.88,405.176L1323.88,405.176C1313.82,405.176 1293.88,409.237 1278.88,410.176C1270.35,410.71 1262.61,411.074 1255.55,411.299C1238.25,411.848 1225.06,411.561 1214.64,410.877L1214.64,410.877L1214.39,410.86L1169.1,405.178L1168.82,405.177ZM1268.28,744.419C1268.74,745.173 1269,746.056 1269,747C1269,749.76 1266.76,752 1264,752L1110,752C1109.33,751.917 1108.32,751.677 1107.68,751.509C1102.82,751.02 1099.68,747.692 1098.01,743.571C1097.04,741.586 1096.5,739.356 1096.5,737C1096.5,736.525 1096.52,736.055 1096.57,735.592C1096.59,733.959 1096.8,732.391 1097.18,731C1108.58,689.935 1177.08,505.176 1177.08,505.176L1177.08,505.144C1177.09,502.399 1179.33,500.176 1182.08,500.176C1184.09,500.176 1185.83,501.373 1186.62,503.094L1186.66,503.176L1268.28,744.419ZM1214.26,584.248L1216.52,590.887L1227.35,622.731L1237.5,652.6L1227.35,622.731L1219.71,600.287L1214.26,584.248ZM1196.75,532.793L1195.48,529.043L1198.59,538.195L1202.49,549.649L1196.75,532.793ZM1188.54,508.673L1188.98,509.96L1190.77,515.224L1188.54,508.673Z" style="fill:url(#_Linear1);"/>
        </g>
        <g id="I" transform="matrix(1,0,0,1,929.723,-1.13687e-13)">
            <path d="M643.201,435C637.693,435 633.219,430.537 633.201,425.032C633.201,425.022 633.201,425.011 633.201,425C633.201,422.24 635.441,420 638.201,420L873.201,420L873.233,420C875.967,420.017 910,420 910,420C912.76,420 915,422.24 915,425C915,425.011 915,425.022 915,425.032C914.982,430.516 910.478,434.965 905,435L905,435C894.949,434.999 875.004,439.06 860,440C780.231,444.996 723.333,435.13 705.043,435L705.057,435C705.059,435 705.052,435 705.049,435L705,435L705.043,435C705.008,435.001 704.931,435.001 704.946,435.001L705,435C704.982,435 704.965,435 704.947,435.001L704.946,435.001C703.591,435.029 702.5,436.138 702.5,437.5C702.5,438.561 703.162,439.468 704.095,439.831C727.842,441.42 780.919,447.782 811.376,478.035C841.834,508.287 834.741,608.82 835,663C835,663 829.449,933.643 832.237,943.976C834.976,954.129 838.799,964.886 846.727,971.998C853.626,978.189 863.066,981.037 872.056,983.043C881.768,985.21 902.422,985 905,985C910.508,985 914.982,989.463 915,994.968C915,994.978 915,994.989 915,995C915,997.76 912.76,1000 910,1000L637.201,1000C634.441,1000 632.201,997.76 632.201,995C632.201,994.989 632.201,994.978 632.201,994.968C632.219,989.463 636.693,985 642.201,985C651.995,985 664.084,983.185 665.701,983.185C689.398,983.185 709.201,963.197 709.201,939.5C709.201,937.884 711.201,919.794 711.201,910C711.201,910 712.693,477.762 703.392,465.27C699.86,460.527 695.781,456.215 691.248,452.428C678.231,441.55 661.475,435 643.201,435Z" style="fill:url(#_Linear2);"/>
        </g>
        <g id="A1" transform="matrix(1,0,0,1,19.9242,29.8237)">
            <path d="M1168.82,405.177C1167.46,405.206 1166.38,406.315 1166.38,407.676C1166.38,408.737 1167.04,409.644 1167.97,410.007C1217.35,417.145 1276.82,435.867 1306.02,514.176C1306.02,514.176 1420.44,818.896 1448.83,896.529C1450.94,902.29 1452.88,907.8 1454.63,912.972C1454.83,913.557 1455.34,914.471 1455.47,914.629C1467.99,938.613 1493.1,955 1522,955L1522.13,955.001C1527.58,955.07 1531.98,959.506 1532,964.968C1532,964.978 1532,964.989 1532,965C1532,967.76 1529.76,970 1527,970L1262.88,970.176C1260.12,970.176 1257.88,967.936 1257.88,965.176C1257.88,965.166 1257.88,965.155 1257.88,965.144C1257.89,959.639 1262.37,955.176 1267.88,955.176C1267.88,955.176 1274.96,955.001 1279,955C1285.2,954.998 1288.82,955 1297,955C1297,955 1297,955 1297,955C1313.56,955 1327,941.557 1327,925C1327,923.155 1326.83,921.35 1326.51,919.598C1324.95,908.281 1319.05,892.653 1314.88,880.176L1282.78,785.544C1282.16,783.493 1280.25,782 1278,782C1277.94,782 1079.08,782.176 1079.08,782.176L1048,782L1047.98,782C1046.61,782.009 1045.5,783.126 1045.5,784.5C1045.5,785.794 1046.49,786.86 1047.75,786.987L1048.03,787C1051.5,786.977 1054.76,786.901 1055,787L1055,787C1063.13,787.032 1069.74,793.539 1069.94,801.625C1069.98,801.746 1070,801.871 1070,802C1069.99,806.791 1069.01,809.385 1068.02,812.176C1067.79,812.806 1043.66,877.822 1034.44,903C1034.38,903.163 1031.02,913.488 1031.02,919C1031.02,936.903 1044.21,950.28 1061,954C1062.89,954.619 1066.32,954.731 1080,954.919C1083.82,954.972 1088.45,955 1094.08,955C1099.58,955 1104.06,959.639 1104.08,965.144C1104.08,965.155 1104.08,965.166 1104.08,965.176C1104.08,967.936 1101.84,970.176 1099.08,970.176L910.076,970.176C907.316,970.176 905.076,967.936 905.076,965.176C905.076,965.166 905.076,965.155 905.076,965.144C905.094,959.639 909.568,955.176 915.076,955.176C916.237,955.176 917.379,955.058 918.5,954.867C946.027,953.235 969.579,936.727 981.219,913.281C981.709,912.873 1003.45,862.178 1005,858.474C1056.87,734.674 1143.83,468.238 1151.27,449.447C1152.29,446.869 1154.19,441.642 1155.47,436.426C1156.29,433.036 1157.13,429.651 1157,427C1157,425.57 1156.4,424.28 1155.43,423.368L1155.43,423.368C1155.3,423.243 1148.58,417.625 1145.8,415.947C1134.49,409.111 1121.24,405.176 1107.08,405.176C1101.57,405.176 1097.09,400.713 1097.08,395.209C1097.08,395.198 1097.08,395.187 1097.08,395.176C1097.08,392.417 1099.32,390.176 1102.08,390.176L1292.08,390.176L1292.11,390.176C1294.84,390.194 1328.88,390.176 1328.88,390.176C1331.63,390.176 1333.88,392.417 1333.88,395.176C1333.88,395.187 1333.88,395.198 1333.88,395.209C1333.86,400.643 1329.43,405.03 1324.02,405.141C1324.01,405.164 1323.96,405.176 1323.88,405.176L1323.88,405.176C1313.82,405.176 1293.88,409.237 1278.88,410.176C1270.35,410.71 1262.61,411.074 1255.55,411.299C1238.25,411.848 1225.06,411.561 1214.64,410.877L1214.64,410.877L1214.39,410.86L1169.1,405.178L1168.82,405.177ZM1268.28,744.419C1268.74,745.173 1269,746.056 1269,747C1269,749.76 1266.76,752 1264,752L1110,752C1109.33,751.917 1108.32,751.677 1107.68,751.509C1102.82,751.02 1099.68,747.692 1098.01,743.571C1097.04,741.586 1096.5,739.356 1096.5,737C1096.5,736.525 1096.52,736.055 1096.57,735.592C1096.59,733.959 1096.8,732.391 1097.18,731C1108.58,689.935 1177.08,505.176 1177.08,505.176L1177.08,505.144C1177.09,502.399 1179.33,500.176 1182.08,500.176C1184.09,500.176 1185.83,501.373 1186.62,503.094L1186.66,503.176L1268.28,744.419ZM1214.26,584.248L1216.52,590.887L1227.35,622.731L1237.5,652.6L1227.35,622.731L1219.71,600.287L1214.26,584.248ZM1196.75,532.793L1195.48,529.043L1198.59,538.195L1202.49,549.649L1196.75,532.793ZM1188.54,508.673L1188.98,509.96L1190.77,515.224L1188.54,508.673Z" style="fill:url(#_Linear3);"/>
        </g>
        <path id="M" d="M130,435C124.492,435 120.018,430.537 120,425.032C120,425.022 120,425.011 120,425C120,422.24 122.24,420 125,420L315,420L315.032,420C317.766,420.017 319.983,422.234 320,424.968L320,425C320,436.686 322.678,447.751 327.455,457.615L525.213,838.635C525.834,840.69 527.743,842.188 530,842.188C532.049,842.188 533.811,840.953 534.583,839.188L686.616,515L712.829,457.023C717.428,447.308 720,436.452 720,425C720,422.24 722.24,420 725,420L910,420C912.76,420 915,422.24 915,425C915,425.011 915,425.022 915,425.032C914.982,430.516 910.478,434.965 905,435L905,435C894.949,434.999 875.004,439.06 860,440C780.231,444.996 768.333,437.13 750.043,437L750.057,437C750.059,437 750.052,437 750.049,437L750,437L750.043,437C750.008,437.001 749.931,437.001 749.946,437.001L750,437C749.982,437 749.965,437 749.947,437.001L749.946,437.001C748.591,437.029 747.5,438.138 747.5,439.5C747.5,440.561 748.162,441.468 749.095,441.831C793.477,464.969 830,471.197 830,542C830,542 829.627,845.837 830,910C830.066,921.35 829.449,933.643 832.237,943.976C834.976,954.129 838.799,964.886 846.727,971.998C853.626,978.189 863.066,981.037 872.056,983.043C881.768,985.21 902.422,985 905,985C910.508,985 914.982,989.463 915,994.968C915,994.978 915,994.989 915,995C915,997.76 912.76,1000 910,1000L640,1000C637.24,1000 635,997.76 635,995C635,994.989 635,994.978 635,994.968C635.018,989.463 639.492,985 645,985C645,985 668.919,985.398 677.944,983.043C698.605,981.343 715.584,964.527 717.763,943.977C720.416,934.558 720,912.518 720,910L710,580C710,577.24 707.76,575 705,575C702.251,575 700.017,577.223 700,579.968L699.5,581.062L498.931,1007C497.283,1010.26 493.901,1012.5 490,1012.5C486.099,1012.5 482.717,1010.26 481.069,1007C481.069,1007 259.851,578.613 259.583,578C258.811,576.235 257.049,575 255,575C252.251,575 250.017,577.223 250,579.968L250,580L235,910C235,919.794 237,937.884 237,939.5C237,963.197 256.803,983.185 280.5,983.185C282.116,983.185 300.206,985 310,985C315.508,985 319.982,989.463 320,994.968C320,994.978 320,994.989 320,995C320,997.76 317.76,1000 315,1000L105,1000C102.24,1000 100,997.76 100,995C100,994.989 100,994.978 100,994.968C100.018,989.463 104.492,985 110,985C119.794,985 137.884,983.185 139.5,983.185C163.197,983.185 183,963.197 183,939.5C183,937.884 185,919.794 185,910L204.621,517.579C204.872,515.087 205,512.558 205,510C205,468.606 171.394,435 130,435Z" style="fill:url(#_Linear4);"/>
    </g>
    <defs>
        <linearGradient id="_Linear1" x1="0" y1="0" x2="1" y2="0" gradientUnits="userSpaceOnUse" gradientTransform="matrix(0,592.5,-619.228,0,341.176,390.176)"><stop offset="0" style="stop-color:rgb(44,71,112);stop-opacity:1"/><stop offset="1" style="stop-color:rgb(24,22,39);stop-opacity:1"/></linearGradient>
        <linearGradient id="_Linear2" x1="0" y1="0" x2="1" y2="0" gradientUnits="userSpaceOnUse" gradientTransform="matrix(0,592.5,-619.228,0,361.1,420)"><stop offset="0" style="stop-color:rgb(44,71,112);stop-opacity:1"/><stop offset="1" style="stop-color:rgb(24,22,39);stop-opacity:1"/></linearGradient>
        <linearGradient id="_Linear3" x1="0" y1="0" x2="1" y2="0" gradientUnits="userSpaceOnUse" gradientTransform="matrix(0,592.5,-619.228,0,1270.9,390.176)"><stop offset="0" style="stop-color:rgb(44,71,112);stop-opacity:1"/><stop offset="1" style="stop-color:rgb(24,22,39);stop-opacity:1"/></linearGradient>
        <linearGradient id="_Linear4" x1="0" y1="0" x2="1" y2="0" gradientUnits="userSpaceOnUse" gradientTransform="matrix(0,592.5,-619.228,0,1290.82,420)"><stop offset="0" style="stop-color:rgb(44,71,112);stop-opacity:1"/><stop offset="1" style="stop-color:rgb(24,22,39);stop-opacity:1"/></linearGradient>
    </defs>
</svg>
